name GIL06_free2.mot
datacolumns 153
datarows 4
range 0.38333330 0.40833327
endheader

                time	           pelvis_tx	           pelvis_ty	           pelvis_tz	         pelvis_tilt	         pelvis_list	     pelvis_rotation	       hip_flexion_r	     hip_adduction_r	      hip_rotation_r	        knee_angle_r	       ankle_angle_r	    subtalar_angle_r	         mtp_angle_r	       hip_flexion_l	     hip_adduction_l	      hip_rotation_l	        knee_angle_l	       ankle_angle_l	    subtalar_angle_l	         mtp_angle_l	    lumbar_extension	      lumbar_bending	     lumbar_rotation	     ground_force_vx	     ground_force_vy	     ground_force_vz	     ground_force_px	     ground_force_py	     ground_force_pz	     ground_force_vx	     ground_force_vy	     ground_force_vz	     ground_force_px	     ground_force_py	     ground_force_pz	     ground_torque_x	     ground_torque_y	     ground_torque_z	     ground_torque_x	     ground_torque_y	     ground_torque_z	    ground_marker_px	    ground_marker_py	    ground_marker_pz	    ground_marker_px	    ground_marker_py	    ground_marker_pz	    ground_marker_px	    ground_marker_py	    ground_marker_pz	    ground_marker_px	    ground_marker_py	    ground_marker_pz	    ground_marker_px	    ground_marker_py	    ground_marker_pz	    ground_marker_px	    ground_marker_py	    ground_marker_pz	    ground_marker_px	    ground_marker_py	    ground_marker_pz	    ground_marker_px	    ground_marker_py	    ground_marker_pz	    ground_marker_px	    ground_marker_py	    ground_marker_pz	    ground_marker_px	    ground_marker_py	    ground_marker_pz	    ground_marker_px	    ground_marker_py	    ground_marker_pz	    ground_marker_px	    ground_marker_py	    ground_marker_pz	    ground_marker_px	    ground_marker_py	    ground_marker_pz	    ground_marker_px	    ground_marker_py	    ground_marker_pz	    ground_marker_px	    ground_marker_py	    ground_marker_pz	    ground_marker_px	    ground_marker_py	    ground_marker_pz	    ground_marker_px	    ground_marker_py	    ground_marker_pz	    ground_marker_px	    ground_marker_py	    ground_marker_pz	    ground_marker_px	    ground_marker_py	    ground_marker_pz	    ground_marker_px	    ground_marker_py	    ground_marker_pz	    ground_marker_px	    ground_marker_py	    ground_marker_pz	    ground_marker_px	    ground_marker_py	    ground_marker_pz	    ground_marker_px	    ground_marker_py	    ground_marker_pz	    ground_marker_px	    ground_marker_py	    ground_marker_pz	    ground_marker_px	    ground_marker_py	    ground_marker_pz	    ground_marker_px	    ground_marker_py	    ground_marker_pz	    ground_marker_px	    ground_marker_py	    ground_marker_pz	    ground_marker_px	    ground_marker_py	    ground_marker_pz	    ground_marker_px	    ground_marker_py	    ground_marker_pz	    ground_marker_px	    ground_marker_py	    ground_marker_pz	    ground_marker_px	    ground_marker_py	    ground_marker_pz	    ground_marker_px	    ground_marker_py	    ground_marker_pz	    ground_marker_px	    ground_marker_py	    ground_marker_pz	    ground_marker_px	    ground_marker_py	    ground_marker_pz	    ground_marker_px	    ground_marker_py	    ground_marker_pz	    ground_marker_px	    ground_marker_py	    ground_marker_pz	    ground_marker_px	    ground_marker_py	    ground_marker_pz	
          0.38333330	          0.41134518	          0.84790069	         -0.28431255	         -4.43660164	         -0.10048091	         -0.46178123	         32.60671234	         -1.81634200	         10.75070667	        -31.57553673	          1.13174117	          0.00000000	          0.00000000	         -1.77759647	          5.13085461	         -1.35917127	         -0.18827379	          3.86364341	          0.00000000	          0.00000000	         -4.95390606	          2.53606319	         -0.56658328	          0.00000000	          0.00000000	          0.00000000	          0.68400275	          0.00000000	         -0.19960277	          7.25613687	        709.58409130	         28.22946502	          0.27465332	          0.00000000	         -0.32342761	          0.00000000	          0.00000000	          0.00000000	          0.00000000	         -4.98961035	          0.00000000	          0.30201280	          0.77314878	         -0.28629676	          0.28267920	          0.77663827	         -0.20714374	          0.28380501	          0.77602160	         -0.36276758	          0.47191900	          0.42313635	         -0.19165502	          0.24539655	          0.42552564	         -0.32998675	          0.44493404	          0.07650623	         -0.20638365	          0.20385800	          0.05949530	         -0.30869976	          0.41134518	          0.84790069	         -0.28431255	          0.41045180	          0.84839004	         -0.16081832	          0.41223857	          0.84741133	         -0.40780675	          0.16959430	          0.91873735	         -0.24936268	          0.16720520	          0.92043376	         -0.30448580	          0.48211730	          0.43167388	         -0.12140296	          0.24353363	          0.41907218	         -0.40117052	          0.47752759	          0.42305291	         -0.25633687	          0.23904696	          0.42364702	         -0.24938162	          0.43322298	          0.07585979	         -0.16971374	          0.18664925	          0.05938052	         -0.34425387	          0.45782590	          0.08603963	         -0.24188434	          0.19878012	          0.07968778	         -0.26808590	          0.20660815	          1.34116614	         -0.29158783	          0.33398575	          1.27835250	         -0.24936523	          0.33591411	          1.28143489	         -0.32996961	          0.31876287	          1.27430511	         -0.30241933	          0.37298751	          1.20252895	         -0.30269408	          0.55074859	          0.65252870	         -0.14364684	          0.44841135	          0.57924670	         -0.35344014	          0.50715351	          0.65081155	         -0.15811487	          0.40360457	          0.59987998	         -0.36141467	          0.52522278	          0.57481825	         -0.15960413	          0.37588587	          0.53348762	         -0.35397252	          0.53970051	          0.21088462	         -0.16634673	          0.19190744	          0.16139346	         -0.41808498	          0.49840832	          0.22279528	         -0.18221582	          0.19322442	          0.17709835	         -0.37294993	          0.54635072	          0.05888992	         -0.18335745	          0.30204305	          0.04633109	         -0.31976435	
          0.39166662	          0.42002013	          0.84669983	         -0.28407806	         -4.53323555	         -0.16017941	         -0.12239835	         32.69902802	         -1.69835544	         11.42221165	        -28.47450829	          0.27884281	          0.00000000	          0.00000000	         -2.24497795	          5.10393524	         -1.11027563	         -0.39067787	          4.49528265	          0.00000000	          0.00000000	         -4.81805658	          3.20521832	         -0.36393258	          0.00000000	          0.00000000	          0.00000000	          0.68591815	          0.00000000	         -0.19964572	         10.68586259	        720.95816822	         27.52378134	          0.27801318	          0.00000000	         -0.32250250	          0.00000000	          0.00000000	          0.00000000	          0.00000000	         -5.61479687	          0.00000000	          0.31051016	          0.77210820	         -0.28539580	          0.29169640	          0.77560312	         -0.20618996	          0.29189131	          0.77509135	         -0.36181810	          0.48073274	          0.42256030	         -0.19291696	          0.25023872	          0.42508292	         -0.32922810	          0.47212043	          0.07447276	         -0.20594291	          0.20400226	          0.05974188	         -0.30796462	          0.42002013	          0.84669983	         -0.28407806	          0.41986492	          0.84710735	         -0.16014084	          0.42017534	          0.84629238	         -0.40801525	          0.17852095	          0.91795772	         -0.24793872	          0.17589670	          0.91964662	         -0.30304462	          0.49214751	          0.43130550	         -0.12287786	          0.24820153	          0.41869715	         -0.40041322	          0.48221737	          0.42141744	         -0.25664961	          0.24404721	          0.42466816	         -0.24787679	          0.46023476	          0.07339706	         -0.16933933	          0.18687512	          0.05983784	         -0.34355819	          0.48551816	          0.08482397	         -0.24133168	          0.19944885	          0.08001943	         -0.26738834	          0.21525770	          1.34006512	         -0.29118699	          0.34322757	          1.27698803	         -0.24940905	          0.34453666	          1.28110278	         -0.33003476	          0.32733142	          1.27339435	         -0.30225301	          0.38204807	          1.20196867	         -0.30401856	          0.55968940	          0.65142298	         -0.14725898	          0.45444855	          0.57745230	         -0.35293847	          0.51666969	          0.64953989	         -0.16167656	          0.41016489	          0.59872162	         -0.36115897	          0.53296179	          0.57385319	         -0.16204081	          0.38188943	          0.53247350	         -0.35315329	          0.56024086	          0.21372071	         -0.16574852	          0.19360535	          0.16161814	         -0.41730458	          0.51999623	          0.22379221	         -0.18175311	          0.19521286	          0.17704587	         -0.37249461	          0.57446402	          0.06073512	         -0.18229315	          0.30212352	          0.04633209	         -0.31965286	
          0.39999995	          0.42873323	          0.84543860	         -0.28378236	         -4.63423920	         -0.19911355	          0.21231261	         32.79729462	         -1.59579360	         12.04913616	        -25.58571815	         -0.56507593	          0.00000000	          0.00000000	         -2.66709137	          5.08389902	         -0.88954967	         -0.67715508	          5.16236496	          0.00000000	          0.00000000	         -4.57742691	          3.37883019	         -0.81310123	          0.00000000	          0.00000000	          0.00000000	          0.68757629	          0.00000000	         -0.19970940	         14.22591963	        733.94637223	         28.11300663	          0.28133765	          0.00000000	         -0.32160754	          0.00000000	          0.00000000	          0.00000000	          0.00000000	         -6.06788672	          0.00000000	          0.31901759	          0.77104867	         -0.28449294	          0.30073613	          0.77449054	         -0.20522402	          0.30002871	          0.77413744	         -0.36085114	          0.48956779	          0.42188919	         -0.19413906	          0.25537330	          0.42457142	         -0.32849494	          0.49840546	          0.07312696	         -0.20531741	          0.20416093	          0.06000131	         -0.30721030	          0.42873323	          0.84543860	         -0.28378236	          0.42929840	          0.84572071	         -0.15943734	          0.42816803	          0.84515643	         -0.40812737	          0.18755072	          0.91709155	         -0.24656653	          0.18469124	          0.91882342	         -0.30160153	          0.50212485	          0.43080902	         -0.12431782	          0.25314349	          0.41826716	         -0.39968154	          0.48879704	          0.41962039	         -0.25835258	          0.24762170	          0.42622522	         -0.24450029	          0.48639244	          0.07165112	         -0.16876937	          0.18712018	          0.06031468	         -0.34284407	          0.51107073	          0.08412518	         -0.24071845	          0.19987971	          0.08046487	         -0.26659736	          0.22379443	          1.33873761	         -0.29127556	          0.35163805	          1.27605402	         -0.24878395	          0.35314277	          1.28042948	         -0.32997623	          0.33592746	          1.27236855	         -0.30207959	          0.39085338	          1.20133507	         -0.30379647	          0.56838423	          0.64995080	         -0.15069437	          0.46066105	          0.57566625	         -0.35249767	          0.52519685	          0.64789158	         -0.16475084	          0.41599852	          0.59743297	         -0.36092737	          0.54109174	          0.57236904	         -0.16492099	          0.38608077	          0.52977282	         -0.35160202	          0.58003068	          0.21673258	         -0.16512080	          0.19539455	          0.16183203	         -0.41654664	          0.53963751	          0.22406581	         -0.18081243	          0.19714564	          0.17736591	         -0.37189627	          0.60151225	          0.06305168	         -0.18116936	          0.30222905	          0.04633312	         -0.31945527	
          0.40833327	          0.43749675	          0.84414220	         -0.28345713	         -4.73450089	         -0.21870394	          0.54121488	         32.90265656	         -1.50909245	         12.60913467	        -22.92722702	         -1.37243533	          0.00000000	          0.00000000	         -3.05775452	          5.07247639	         -0.70704889	         -1.03199673	          5.85017157	          0.00000000	          0.00000000	         -4.27115870	          2.70120382	         -1.49433434	          0.00000000	          0.00000000	          0.00000000	          0.68908191	          0.00000000	         -0.19982037	         17.79849344	        747.50606156	         29.66764115	          0.28462308	          0.00000000	         -0.32070117	          0.00000000	          0.00000000	          0.00000000	          0.00000000	         -6.31222754	          0.00000000	          0.32758000	          0.76994348	         -0.28360456	          0.30981556	          0.77331644	         -0.20427689	          0.30823672	          0.77317083	         -0.35989791	          0.49846533	          0.42119426	         -0.19533785	          0.26076707	          0.42401251	         -0.32780400	          0.52376515	          0.07238618	         -0.20449176	          0.20434307	          0.06027943	         -0.30647027	          0.43749675	          0.84414220	         -0.28345713	          0.43876156	          0.84425884	         -0.15878780	          0.43623194	          0.84402555	         -0.40812644	          0.19667949	          0.91614729	         -0.24524146	          0.19357124	          0.91797101	         -0.30015957	          0.51206475	          0.43024725	         -0.12572931	          0.25831339	          0.41780266	         -0.39899155	          0.49846286	          0.41747248	         -0.26139608	          0.25694072	          0.42118022	         -0.24593608	          0.51167393	          0.07055115	         -0.16798578	          0.18738832	          0.06081728	         -0.34214234	          0.53620708	          0.08376861	         -0.23981825	          0.20012271	          0.08074839	         -0.26575479	          0.23208712	          1.33743215	         -0.29120907	          0.35973451	          1.27528822	         -0.24837102	          0.36158243	          1.27868783	         -0.32970691	          0.34460962	          1.27126050	         -0.30184200	          0.39916107	          1.19990480	         -0.30236551	          0.57686448	          0.64817888	         -0.15389302	          0.46705762	          0.57385457	         -0.35217130	          0.53236204	          0.64612424	         -0.16701111	          0.42196116	          0.59616691	         -0.36003864	          0.55008131	          0.57032853	         -0.16826366	          0.39360961	          0.52927214	         -0.35195616	          0.59905708	          0.21988635	         -0.16450317	          0.19725440	          0.16205576	         -0.41585168	          0.55885345	          0.22480935	         -0.18015839	          0.19911534	          0.17785943	         -0.37096706	          0.62744206	          0.06579251	         -0.17998980	          0.30238101	          0.04632536	         -0.31919518	
